<?xml version="1.0" encoding="UTF-8"?>
<svg width="40px" height="40px" viewBox="0 0 40 40" version="1.1" xmlns="http://www.w3.org/2000/svg" xmlns:xlink="http://www.w3.org/1999/xlink">
    <!-- Generator: Sketch 60 (88103) - https://sketch.com -->
    <title>icon/bulb</title>
    <desc>Created with Sketch.</desc>
    <g id="icon/bulb" stroke="none" stroke-width="1" fill="none" fill-rule="evenodd">
        <g id="Group-3" transform="translate(1.000000, 0.000000)" fill="#FFFFFF" fill-rule="nonzero">
            <g id="Group" transform="translate(8.100000, 8.100000)">
                <path d="M11.8363834,0.329261667 L11.526547,0.325060267 C5.2278,0.325060267 0.325,5.40142131 0.325,11.4062876 C0.325,13.7902361 1.15527336,15.3724412 3.13854212,17.6072962 L4.15763759,18.7330341 C5.55045727,20.2926384 6.10963995,21.3027393 6.10963995,22.5930468 L6.10963995,26.1297759 L16.9254144,26.1297759 L16.9254144,22.5930468 L16.9351959,22.3106452 C17.008928,21.2168538 17.5101807,20.3031712 18.6665119,18.9723388 L19.0485109,18.5427278 L19.6425751,17.8901575 C21.8091501,15.5028997 22.7100543,13.8895673 22.7100543,11.4062876 C22.7100543,5.51640464 17.9790166,0.493818629 11.8363834,0.329261667 Z M11.5085074,1.67493973 L11.8092873,1.67895932 C17.2015733,1.82347579 21.3600543,6.23822157 21.3600543,11.4062876 C21.3600543,13.3818073 20.6651692,14.7085157 18.8817228,16.7169441 L17.8705022,17.8337994 C16.3796055,19.503225 15.6916995,20.6833893 15.5870836,22.2429963 L15.5757886,22.5705743 L15.575,24.779 L7.459,24.779 L7.45963995,22.5930468 C7.45963995,20.9697723 6.82792601,19.7474881 5.39713192,18.0979278 L4.68913702,17.3088868 L4.39216071,16.9828885 C2.43162356,14.8226552 1.675,13.4676995 1.675,11.4062876 C1.675,6.1366958 5.98409904,1.67493973 11.5085074,1.67493973 Z" id="Combined-Shape"></path>
                <path d="M10.9731028,27.6250597 L8.19105861,27.6109659 C10.5595309,27.6741422 8.65537896,27.56703 8.55352022,28.0185034 L8.54933084,28.0563478 L7.64933084,28.0563478 L7.6454567,28.0934927 C7.57680802,28.4167924 6.62290894,28.4580963 6.95842394,28.478395 L7.649,28.497 L7.64933084,29.3785999 C7.64933084,30.4659105 8.53077024,31.3473499 9.61808084,31.3473499 L13.6799117,31.3473499 L13.8268418,31.3419499 C14.845532,31.2667937 15.6486617,30.4164873 15.6486617,29.3785999 L15.648,28.497 L16.2868657,28.4810056 C16.7786832,28.4605138 15.6486617,28.4290487 15.6486617,28.0563478 L14.748,28.056 L14.7444723,28.0185034 C14.6745153,27.7084295 13.7544159,27.6618405 13.9522403,27.6426063 L14.888101,27.6147033 L12.968701,27.6241483 L10.9731028,27.6250597 Z" id="Path"></path>
                <path d="M16.5272575,23.4438328 L6.50779682,23.4438328 C5.54086444,23.4438328 4.75701087,24.2276863 4.75701087,25.1946187 C4.75701087,26.1615511 5.54086444,26.9454047 6.50779682,26.9454047 L16.5272575,26.9454047 C17.4941899,26.9454047 18.2780435,26.1615511 18.2780435,25.1946187 C18.2780435,24.2276863 17.4941899,23.4438328 16.5272575,23.4438328 Z" id="Path"></path>
                <path d="M15.4755048,26.0454047 L7.55954954,26.0454047 C6.59261716,26.0454047 5.80876359,26.8292583 5.80876359,27.7961906 C5.80876359,28.763123 6.59261716,29.5469766 7.55954954,29.5469766 L15.4755048,29.5469766 C16.4424372,29.5469766 17.2262908,28.763123 17.2262908,27.7961906 C17.2262908,26.8292583 16.4424372,26.0454047 15.4755048,26.0454047 Z" id="Path"></path>
            </g>
            <g id="Group-2">
                <polygon id="Path" points="20.0096875 0.47817191 20.0096875 6.11698539 18.6596875 6.11698539 18.6596875 0.47817191"></polygon>
                <polygon id="Path" points="34.1008273 7.19851236 34.9519476 8.24641226 30.7609584 11.6503978 29.9098381 10.6024978"></polygon>
                <polygon id="Path" points="32.662979 23.1953679 32.9825754 21.8837436 38.4849853 23.2244861 38.1653889 24.5361103"></polygon>
                <polygon id="Path" points="5.68679965 21.8837436 6.00639603 23.1953679 0.503986068 24.5361103 0.184389689 23.2244861"></polygon>
                <polygon id="Path" points="3.71742739 8.24641226 4.56854771 7.19851236 8.7595369 10.6024978 7.90841658 11.6503978"></polygon>
            </g>
        </g>
    </g>
</svg>