<?xml version="1.0" encoding="UTF-8"?>
<svg viewBox="2.5 4 36.5 36.5" version="1.1" xmlns="http://www.w3.org/2000/svg" xmlns:xlink="http://www.w3.org/1999/xlink">
    <title>icon/bulb_outline</title>
    <g id="Ebene_1" stroke="none" stroke-width="1">
        <g id="Ebene_2" transform="translate(6.454734, 4.238040)">
            <path d="M13.5364403,0.535571499 C13.7819002,0.535571499 13.9860486,0.712446659 14.0283846,0.945695866 L14.0364403,1.0355715 L14.0364403,5.14777285 C14.0364403,5.42391522 13.8125826,5.64777285 13.5364403,5.64777285 C13.2909804,5.64777285 13.0868319,5.47089769 13.0444959,5.23764848 L13.0364403,5.14777285 L13.0364403,1.0355715 C13.0364403,0.759429124 13.2602979,0.535571499 13.5364403,0.535571499 Z" id="Line-5"></path>
            <path d="M1.09376009,7.86487025 C1.21276141,7.65018619 1.46643306,7.55738468 1.69096229,7.63343828 L1.77347476,7.6699652 L5.3700871,9.66359998 C5.61160666,9.79747646 5.69886862,10.1017951 5.56499214,10.3433146 C5.44599083,10.5579987 5.19231918,10.6508002 4.96778994,10.5747466 L4.88527748,10.5382197 L1.28866514,8.54458491 C1.04714557,8.41070843 0.959883613,8.10638981 1.09376009,7.86487025 Z" id="Line-5"></path>
            <path d="M4.81689976,18.8414767 C5.060719,18.7118357 5.36346834,18.8043954 5.49310933,19.0482147 C5.60834577,19.2649429 5.54801618,19.5282332 5.36194488,19.6751175 L5.28637132,19.7244243 L1.65551304,21.6549859 C1.41169379,21.7846268 1.10894445,21.6920671 0.979303457,21.4482478 C0.86406702,21.2315196 0.92439661,20.9682294 1.11046791,20.821345 L1.18604147,20.7720383 L4.81689976,18.8414767 Z" id="Line-5"></path>
            <path d="M25.3652837,7.57628228 C25.60443,7.43821109 25.9102252,7.52014867 26.0482964,7.75929498 C26.1710263,7.97186948 26.1199222,8.23710483 25.9390904,8.39039345 L25.8652837,8.44230768 L22.3040128,10.4984084 C22.0648665,10.6364795 21.7590713,10.554542 21.6210001,10.3153957 C21.4982702,10.1028212 21.5493743,9.83758581 21.7302061,9.68429718 L21.8040128,9.63238295 L25.3652837,7.57628228 Z" id="Line-5"></path>
            <path d="M21.9401529,19.0440464 C22.0477554,18.8234285 22.2962225,18.717478 22.5244244,18.7816764 L22.6087354,18.8138349 L26.3047575,20.6165053 C26.5529527,20.7375582 26.6560218,21.0368928 26.534969,21.2850879 C26.4273665,21.5057058 26.1788993,21.6116563 25.9506974,21.5474579 L25.8663864,21.5152994 L22.1703643,19.712629 C21.9221692,19.5915761 21.8191,19.2922415 21.9401529,19.0440464 Z" id="Line-5"></path>
        </g>
        <path d="M20.1170342,11.7541863 C24.5345293,11.9382661 27.8063698,15.3918756 27.8063698,19.2790456 C27.8063698,21.0633682 27.1546363,22.3586468 25.8336571,23.8411919 L25.8336571,23.8411919 L25.1890744,24.544773 L24.8002682,24.9786536 L24.6025023,25.2203825 C24.5435728,25.2962579 24.4910508,25.3682278 24.4431813,25.4386786 C24.3618295,25.5584062 24.296526,25.6706497 24.2097573,25.8421683 L24.2097573,25.8421683 L24.1836384,25.8925328 C24.1229524,26.0350897 24.0652892,26.3463849 24.0361529,26.6891082 L24.0361529,26.6891082 L24.0267335,26.8110395 L24.0973899,26.849354 C25.0914413,27.4410639 25.2029894,28.7665246 24.3910225,29.426062 L24.3910225,29.426062 L24.2957335,29.4960395 L24.3041156,29.5246595 C24.4893621,30.2890994 24.037999,31.2318221 23.0648108,31.4647442 L23.0648108,31.4647442 L23.0137335,31.4740395 C22.816292,32.0683121 22.2655516,32.6436782 21.4619685,32.7133061 L21.4619685,32.7133061 L21.2979107,32.7203421 L18.8020893,32.7203421 C17.8486777,32.7203421 17.2724817,32.1420715 17.0801397,31.5021135 L17.0801397,31.5021135 L17.0717335,31.4710395 L17.0351892,31.4647442 C16.062001,31.2318221 15.6106379,30.2890994 15.7958844,29.5246595 L15.7958844,29.5246595 L15.8037335,29.4960395 L15.7089775,29.426062 C14.8970106,28.7665246 15.0085587,27.4410639 16.0026101,26.849354 L16.0026101,26.849354 L16.0707335,26.8110395 L16.0670322,26.7390655 C16.0400592,26.4123278 15.9816525,26.1060118 15.9032257,25.8934307 L15.9032257,25.8934307 L15.8538584,25.7777167 C15.803474,25.6706497 15.7381705,25.5584062 15.6568187,25.4386786 C15.5850144,25.3330024 15.5027421,25.2239082 15.4040785,25.1033421 L15.4040785,25.1033421 L15.1831412,24.8445273 L15.0529906,24.6991733 L14.2663429,23.8411919 C12.9453637,22.3586468 12.2936302,21.0633682 12.2936302,19.2790456 C12.2936302,15.377371 15.5825479,11.9375855 20.0758277,11.7541863 L20.0758277,11.7541863 Z M20,12.7533369 C16.1767721,13.0308196 13.2936302,15.9860787 13.2936302,19.2790456 C13.2936302,20.7737783 13.8398411,21.8593376 15.0129611,23.1759392 L15.0129611,23.1759392 L15.9382217,24.1888238 C16.1667944,24.4478895 16.3380406,24.6619312 16.4839474,24.876666 C16.5933036,25.0376084 16.6846562,25.1946251 16.7534814,25.3412114 C16.9677536,25.7697559 17.0835813,26.4647218 17.0835813,27.1362613 L17.0835813,27.1362613 L17.0835813,27.5055486 L16.7306242,27.6141508 C16.0146274,27.8344575 16.0146274,28.9914422 17.0835813,28.9914422 C16.7306242,29.2659782 16.6542664,29.5142647 16.6542664,29.7299652 C16.6542664,29.9456657 16.8177919,30.5186503 17.5079596,30.5186503 L17.5079596,30.5186503 L18.0079596,30.5186503 L18.0079596,31.0186503 C18.0079596,31.3297602 18.2683476,31.7203421 18.8020893,31.7203421 L18.8020893,31.7203421 L21.2979107,31.7203421 C21.7728201,31.7203421 22.0920404,31.2696781 22.0920404,31.0186503 L22.0920404,31.0186503 L22.0920404,30.5186503 L22.5920404,30.5186503 C23.2822081,30.5186503 23.4802844,29.9755957 23.4802844,29.7299652 C23.4802844,29.4843348 23.3693758,29.1994796 23.0164187,28.9914422 C24.0853726,28.9914422 24.0853726,27.8344575 23.3693758,27.6141508 L23.3693758,27.6141508 L23.0164187,27.5055486 L23.0164187,27.1362613 C23.0164187,26.4065061 23.1379146,25.6471567 23.3413228,25.3519196 C23.4153438,25.1946251 23.5066964,25.0376084 23.6160526,24.876666 C23.7911408,24.6189842 24.0027176,24.3623006 24.306057,24.0276158 L24.306057,24.0276158 L25.0272454,23.2423849 L25.2875688,22.9458658 C26.322529,21.7302089 26.8063698,20.6858529 26.8063698,19.2790456 C26.8063698,15.9252521 23.8791169,12.9149668 20,12.7533369 Z"></path>
    </g>
</svg>
