<?xml version="1.0" encoding="UTF-8"?>
<svg width="26px" height="27px" viewBox="0 0 26 27" version="1.1" xmlns="http://www.w3.org/2000/svg" xmlns:xlink="http://www.w3.org/1999/xlink">
    <title>onboarding_key@1x</title>
    <g id="ZWH-4.1.0" stroke="none" stroke-width="1" fill="none" fill-rule="evenodd">
        <g id="onboarding_key" fill="#FFFFFF" fill-rule="nonzero">
            <path d="M2.2,3 C5,0.3 9.5,0.3 12.3,3.1 C14.2,5.1 14.7,7.9 13.9,10.4 L13.9,10.4 L25.4,22.2 L25.3,26.8 L20.7,26.7 L20.3,24.4 L18,23.9 L17.6,21.6 L15.3,21.1 L14.9,18.8 L12.6,18.3 L9.3,14.9 C6.8,15.7 4,15.1 2.1,13.1 C-0.7,10.3 -0.6,5.8 2.2,3 Z M4,4.9 C3.2,5.6 3.2,6.9 4,7.6 C4.8,8.4 6,8.4 6.8,7.6 C7.6,6.8 7.6,5.6 6.8,4.8 C6,4.2 4.8,4.1 4,4.9 Z" id="Combined-Shape"></path>
        </g>
    </g>
</svg>